#tb 0: 1/25
#media_type 0: video
#codec_id 0: rawvideo
#dimensions 0: 352x288
#sar 0: 0/1
0,          0,          0,        1,   608256, 0xd9e6fc6f
0,          1,          1,        1,   608256, 0x9ae01112
0,          2,          2,        1,   608256, 0xda158e71
0,          3,          3,        1,   608256, 0x7ca89aa8
0,          4,          4,        1,   608256, 0xe0e4d8dc
0,          5,          5,        1,   608256, 0x8b2ccd75
0,          6,          6,        1,   608256, 0x94d1825f
0,          7,          7,        1,   608256, 0x2efad48b
0,          8,          8,        1,   608256, 0x513f6640
0,          9,          9,        1,   608256, 0x73a34ec1
0,         10,         10,        1,   608256, 0x4b6536bc
0,         11,         11,        1,   608256, 0x0acdec2e
0,         12,         12,        1,   608256, 0x9c5e0cb9
0,         13,         13,        1,   608256, 0x5e79546d
0,         14,         14,        1,   608256, 0xd17e48bc
0,         15,         15,        1,   608256, 0x9d2ff467
0,         16,         16,        1,   608256, 0x5452b620
0,         17,         17,        1,   608256, 0x116c3473
0,         18,         18,        1,   608256, 0x780ccc2d
0,         19,         19,        1,   608256, 0xb08da0b1
0,         20,         20,        1,   608256, 0x335a0b2c
0,         21,         21,        1,   608256, 0x8a1937d9
0,         22,         22,        1,   608256, 0x1ee02c6d
0,         23,         23,        1,   608256, 0x62141ea0
0,         24,         24,        1,   608256, 0xef2d6af9
0,         25,         25,        1,   608256, 0xe81e40ae
0,         26,         26,        1,   608256, 0xcb5a82dc
0,         27,         27,        1,   608256, 0xab20c844
0,         28,         28,        1,   608256, 0xda4ea154
0,         29,         29,        1,   608256, 0xf560f394
0,         30,         30,        1,   608256, 0xdc5370e0
0,         31,         31,        1,   608256, 0xdd3216e4
0,         32,         32,        1,   608256, 0x67699bcc
0,         33,         33,        1,   608256, 0x34ae2569
0,         34,         34,        1,   608256, 0x2c6fd3d3
0,         35,         35,        1,   608256, 0x46e77fc4
0,         36,         36,        1,   608256, 0x1edfb5a4
0,         37,         37,        1,   608256, 0x636c346a
0,         38,         38,        1,   608256, 0xb941563b
0,         39,         39,        1,   608256, 0x0842e3b9
0,         40,         40,        1,   608256, 0x9bcd9f2d
0,         41,         41,        1,   608256, 0xaea83eb4
0,         42,         42,        1,   608256, 0x4d8cb92a
0,         43,         43,        1,   608256, 0x6d1b7674
0,         44,         44,        1,   608256, 0x8016e077
0,         45,         45,        1,   608256, 0xde957068
0,         46,         46,        1,   608256, 0xbef2ac55
0,         47,         47,        1,   608256, 0xeb340ada
0,         48,         48,        1,   608256, 0xc8d7e1d3
0,         49,         49,        1,   608256, 0x1930ab52
